<?xml version="1.0" encoding="UTF-8" standalone="no"?>
<!DOCTYPE svg PUBLIC "-//W3C//DTD SVG 1.1//EN"
 "http://www.w3.org/Graphics/SVG/1.1/DTD/svg11.dtd">
<!-- Generated by graphviz version 2.36.0 (20140111.2315)
 -->
<!-- Title: G Pages: 1 -->
<svg width="497pt" height="239pt"
 viewBox="0.00 0.00 497.20 239.06" xmlns="http://www.w3.org/2000/svg" xmlns:xlink="http://www.w3.org/1999/xlink">
<g id="graph0" class="graph" transform="scale(1 1) rotate(0) translate(21.6 217.461)">
<title>G</title>
<polygon fill="#111111" stroke="none" points="-21.6,21.6 -21.6,-217.461 475.6,-217.461 475.6,21.6 -21.6,21.6"/>
<!-- constants.ts -->
<g id="node1" class="node"><title>constants.ts</title>
<path fill="none" stroke="#cfffac" d="M445.833,-178.5C445.833,-178.5 370.167,-178.5 370.167,-178.5 366.333,-178.5 362.5,-174.667 362.5,-170.833 362.5,-170.833 362.5,-163.167 362.5,-163.167 362.5,-159.333 366.333,-155.5 370.167,-155.5 370.167,-155.5 445.833,-155.5 445.833,-155.5 449.667,-155.5 453.5,-159.333 453.5,-163.167 453.5,-163.167 453.5,-170.833 453.5,-170.833 453.5,-174.667 449.667,-178.5 445.833,-178.5"/>
<text text-anchor="middle" x="408" y="-163.3" font-family="Arial" font-size="14.00" fill="#cfffac">constants.ts</text>
</g>
<!-- createElement.ts -->
<g id="node2" class="node"><title>createElement.ts</title>
<path fill="none" stroke="#c6c5fe" d="M318.333,-178.5C318.333,-178.5 211.667,-178.5 211.667,-178.5 207.833,-178.5 204,-174.667 204,-170.833 204,-170.833 204,-163.167 204,-163.167 204,-159.333 207.833,-155.5 211.667,-155.5 211.667,-155.5 318.333,-155.5 318.333,-155.5 322.167,-155.5 326,-159.333 326,-163.167 326,-163.167 326,-170.833 326,-170.833 326,-174.667 322.167,-178.5 318.333,-178.5"/>
<text text-anchor="middle" x="265" y="-163.3" font-family="Arial" font-size="14.00" fill="#c6c5fe">createElement.ts</text>
</g>
<!-- createElement.ts&#45;&gt;constants.ts -->
<g id="edge1" class="edge"><title>createElement.ts&#45;&gt;constants.ts</title>
<path fill="none" stroke="#757575" d="M326.206,-167C334.826,-167 343.657,-167 352.167,-167"/>
<polygon fill="#757575" stroke="#757575" points="352.352,-170.5 362.352,-167 352.352,-163.5 352.352,-170.5"/>
</g>
<!-- structs.ts -->
<g id="node3" class="node"><title>structs.ts</title>
<path fill="none" stroke="#cfffac" d="M436.833,-81.5C436.833,-81.5 379.167,-81.5 379.167,-81.5 375.333,-81.5 371.5,-77.6667 371.5,-73.8333 371.5,-73.8333 371.5,-66.1667 371.5,-66.1667 371.5,-62.3333 375.333,-58.5 379.167,-58.5 379.167,-58.5 436.833,-58.5 436.833,-58.5 440.667,-58.5 444.5,-62.3333 444.5,-66.1667 444.5,-66.1667 444.5,-73.8333 444.5,-73.8333 444.5,-77.6667 440.667,-81.5 436.833,-81.5"/>
<text text-anchor="middle" x="408" y="-66.3" font-family="Arial" font-size="14.00" fill="#cfffac">structs.ts</text>
</g>
<!-- createElement.ts&#45;&gt;structs.ts -->
<g id="edge2" class="edge"><title>createElement.ts&#45;&gt;structs.ts</title>
<path fill="none" stroke="#757575" d="M282.45,-155.683C306.941,-138.835 353.179,-107.026 381.907,-87.2624"/>
<polygon fill="#757575" stroke="#757575" points="383.962,-90.0969 390.217,-81.5456 379.995,-84.3298 383.962,-90.0969"/>
</g>
<!-- index.ts -->
<g id="node4" class="node"><title>index.ts</title>
<path fill="none" stroke="#c6c5fe" d="M57.8333,-138.5C57.8333,-138.5 8.16667,-138.5 8.16667,-138.5 4.33333,-138.5 0.5,-134.667 0.5,-130.833 0.5,-130.833 0.5,-123.167 0.5,-123.167 0.5,-119.333 4.33333,-115.5 8.16667,-115.5 8.16667,-115.5 57.8333,-115.5 57.8333,-115.5 61.6667,-115.5 65.5,-119.333 65.5,-123.167 65.5,-123.167 65.5,-130.833 65.5,-130.833 65.5,-134.667 61.6667,-138.5 57.8333,-138.5"/>
<text text-anchor="middle" x="33" y="-123.3" font-family="Arial" font-size="14.00" fill="#c6c5fe">index.ts</text>
</g>
<!-- index.ts&#45;&gt;constants.ts -->
<g id="edge3" class="edge"><title>index.ts&#45;&gt;constants.ts</title>
<path fill="none" stroke="#757575" d="M49.708,-138.328C63.0143,-147.397 82.9196,-159.76 102,-167 195.45,-202.46 226.78,-199.068 326,-187 337.009,-185.661 348.678,-183.334 359.627,-180.73"/>
<polygon fill="#757575" stroke="#757575" points="360.586,-184.098 369.441,-178.281 358.891,-177.306 360.586,-184.098"/>
</g>
<!-- index.ts&#45;&gt;createElement.ts -->
<g id="edge4" class="edge"><title>index.ts&#45;&gt;createElement.ts</title>
<path fill="none" stroke="#757575" d="M65.5552,-137.446C76.9389,-140.903 89.9507,-144.502 102,-147 131.78,-153.175 165.062,-157.687 193.676,-160.846"/>
<polygon fill="#757575" stroke="#757575" points="193.676,-164.366 203.991,-161.949 194.42,-157.405 193.676,-164.366"/>
</g>
<!-- index.ts&#45;&gt;structs.ts -->
<g id="edge7" class="edge"><title>index.ts&#45;&gt;structs.ts</title>
<path fill="none" stroke="#757575" d="M65.6462,-116.532C77.0385,-112.949 90.0324,-109.072 102,-106 146.83,-94.4913 158.158,-91.3854 204,-85 257.724,-77.5167 320.002,-73.6146 361.263,-71.6895"/>
<polygon fill="#757575" stroke="#757575" points="361.448,-75.1848 371.282,-71.2417 361.136,-68.1918 361.448,-75.1848"/>
</g>
<!-- m.ts -->
<g id="node5" class="node"><title>m.ts</title>
<path fill="none" stroke="#c6c5fe" d="M284.333,-22.5C284.333,-22.5 245.667,-22.5 245.667,-22.5 241.833,-22.5 238,-18.6667 238,-14.8333 238,-14.8333 238,-7.16667 238,-7.16667 238,-3.33333 241.833,0.5 245.667,0.5 245.667,0.5 284.333,0.5 284.333,0.5 288.167,0.5 292,-3.33333 292,-7.16667 292,-7.16667 292,-14.8333 292,-14.8333 292,-18.6667 288.167,-22.5 284.333,-22.5"/>
<text text-anchor="middle" x="265" y="-7.3" font-family="Arial" font-size="14.00" fill="#c6c5fe">m.ts</text>
</g>
<!-- index.ts&#45;&gt;m.ts -->
<g id="edge5" class="edge"><title>index.ts&#45;&gt;m.ts</title>
<path fill="none" stroke="#757575" d="M39.0174,-115.653C48.3332,-96.0401 70.2813,-56.0754 102,-37 140.492,-13.8509 193.03,-9.35516 227.705,-9.3162"/>
<polygon fill="#757575" stroke="#757575" points="227.819,-12.8176 237.858,-9.43148 227.898,-5.81807 227.819,-12.8176"/>
</g>
<!-- patch.ts -->
<g id="node6" class="node"><title>patch.ts</title>
<path fill="none" stroke="#c6c5fe" d="M160.333,-138.5C160.333,-138.5 109.667,-138.5 109.667,-138.5 105.833,-138.5 102,-134.667 102,-130.833 102,-130.833 102,-123.167 102,-123.167 102,-119.333 105.833,-115.5 109.667,-115.5 109.667,-115.5 160.333,-115.5 160.333,-115.5 164.167,-115.5 168,-119.333 168,-123.167 168,-123.167 168,-130.833 168,-130.833 168,-134.667 164.167,-138.5 160.333,-138.5"/>
<text text-anchor="middle" x="135" y="-123.3" font-family="Arial" font-size="14.00" fill="#c6c5fe">patch.ts</text>
</g>
<!-- index.ts&#45;&gt;patch.ts -->
<g id="edge6" class="edge"><title>index.ts&#45;&gt;patch.ts</title>
<path fill="none" stroke="#757575" d="M65.6406,-127C73.9483,-127 83.0413,-127 91.8061,-127"/>
<polygon fill="#757575" stroke="#757575" points="91.8779,-130.5 101.878,-127 91.8778,-123.5 91.8779,-130.5"/>
</g>
<!-- m.ts&#45;&gt;structs.ts -->
<g id="edge8" class="edge"><title>m.ts&#45;&gt;structs.ts</title>
<path fill="none" stroke="#757575" d="M292.191,-21.9592C314.267,-31.1969 346.093,-44.5139 370.639,-54.7852"/>
<polygon fill="#757575" stroke="#757575" points="369.414,-58.0664 379.99,-58.6978 372.116,-51.6089 369.414,-58.0664"/>
</g>
<!-- patch.ts&#45;&gt;constants.ts -->
<g id="edge9" class="edge"><title>patch.ts&#45;&gt;constants.ts</title>
<path fill="none" stroke="#757575" d="M168.144,-128.701C206.096,-131.057 271.011,-136.183 326,-146 336.621,-147.896 347.896,-150.46 358.553,-153.143"/>
<polygon fill="#757575" stroke="#757575" points="357.98,-156.611 368.539,-155.736 359.739,-149.835 357.98,-156.611"/>
</g>
<!-- patch.ts&#45;&gt;createElement.ts -->
<g id="edge10" class="edge"><title>patch.ts&#45;&gt;createElement.ts</title>
<path fill="none" stroke="#757575" d="M168.3,-137.094C183.265,-141.77 201.323,-147.413 217.702,-152.532"/>
<polygon fill="#757575" stroke="#757575" points="217.053,-155.996 227.641,-155.638 219.141,-149.314 217.053,-155.996"/>
</g>
<!-- patch.ts&#45;&gt;structs.ts -->
<g id="edge11" class="edge"><title>patch.ts&#45;&gt;structs.ts</title>
<path fill="none" stroke="#757575" d="M168.151,-120.238C216.196,-110.132 306.919,-91.0503 361.672,-79.534"/>
<polygon fill="#757575" stroke="#757575" points="362.393,-82.959 371.458,-77.4755 360.952,-76.1089 362.393,-82.959"/>
</g>
</g>
</svg>
